<?xml version="1.0" ?><!DOCTYPE svg  PUBLIC '-//W3C//DTD SVG 1.1//EN'  'http://www.w3.org/Graphics/SVG/1.1/DTD/svg11.dtd'><svg style="enable-background:new 0 0 512 512;" version="1.1" viewBox="0 0 512 512" xml:space="preserve" xmlns="http://www.w3.org/2000/svg" xmlns:xlink="http://www.w3.org/1999/xlink"><g id="_x31_28-baidu"><g><g><g><path d="M315.254,169.457c29.082,7.479,60.869-18.503,70.838-58.034      c13.045-51.403-16.406-82.614-34.578-85.046c-29.828-3.923-60.865,18.502-70.836,58.037      C270.703,123.943,286.084,161.982,315.254,169.457L315.254,169.457z M315.254,169.457" style="fill:#1B80E4;"/><g><path d="M250.664,89.457c0,40.364-23.615,73.086-52.752,73.086c-29.132,0-52.753-32.722-52.753-73.086       c0-40.358,23.621-73.078,52.753-73.078C227.049,16.379,250.664,49.098,250.664,89.457L250.664,89.457z M250.664,89.457" style="fill:#1B80E4;"/><path d="M419.832,159.551c-30.666,0.472-54.898,29.629-54.248,74.952       c0.656,45.234,26.008,65.892,56.672,65.419c30.572-0.462,54.895-21.773,54.238-67.009       C475.566,173.852,427.197,159.458,419.832,159.551L419.832,159.551z M419.832,159.551" style="fill:#1B80E4;"/><path d="M85.788,125.153c29.99-2.105,56.605,29.17,59.438,69.843       c2.84,40.679-19.168,75.367-49.158,77.465c-29.99,2.106-56.606-29.165-59.447-69.841       C33.79,161.939,55.796,127.256,85.788,125.153L85.788,125.153z M85.788,125.153" style="fill:#1B80E4;"/></g><path d="M391.777,329.362c-26.193-23.083-48.465-41.962-83.23-90.374      c-17.246-23.924-37.098-27.004-57.789-27.004c-20.783,0-42.688,7.29-59.461,31.584c-16.781,24.204-35.887,47.944-72.978,78.876      c-37.004,31.028-52.758,52.43-52.758,84.024c0,31.583,17.99,84.015,69.064,84.015c51.076,0,75.773-11.313,116.222-11.313      c40.453,0,67.201,15.704,118.279,15.704c51.08,0,72.42-48.51,72.42-79.996C441.547,383.284,432.695,365.439,391.777,329.362      L391.777,329.362z M391.777,329.362" style="fill:#1B80E4;"/></g></g></g></g><g id="Layer_1"/></svg>